<svg width="935" height="809" viewBox="0 0 935 809" fill="none" xmlns="http://www.w3.org/2000/svg">
<path opacity="0.24" d="M175.239 714.215C130.689 719.059 84.772 724.385 45.5698 748.08C40.3227 751.258 34.9952 755.006 32.1003 760.727C26.2903 772.235 32.8843 787.403 43.1171 794.329C53.3499 801.256 65.975 802.045 78.0171 802.615C292.443 812.719 507.191 808.752 721.798 804.807C784.119 803.667 847.426 802.352 907.154 782.778C917.889 779.271 929.69 774.01 933.731 762.547C939.018 747.554 926.956 730.939 912.883 726.27C898.811 721.602 883.793 725.087 869.238 727.125C818.698 734.205 767.715 723.377 717.395 714.719C618.887 697.798 516.68 684.032 416.905 681.468C382.89 680.613 353.84 693.37 320.548 698.411C272.48 705.732 223.568 708.954 175.239 714.215Z" fill="#505F98"/>
<path d="M3.80422e-05 264.819L111.094 20.1299L177.259 55.1673L66.1657 299.856L3.80422e-05 264.819Z" fill="white"/>
<path d="M25.7476 257.278L39.284 227.371L83.8483 250.897L70.3119 280.804L25.7476 257.278Z" fill="#505F98"/>
<path d="M25.7476 257.278L39.284 227.371L83.8483 250.897L70.3119 280.804L25.7476 257.278Z" fill="url(#paint0_linear_16_3)"/>
<path d="M39.2859 227.604L52.8223 197.697L97.3867 221.223L83.8502 251.13L39.2859 227.604Z" fill="#505F98"/>
<path d="M39.2859 227.604L52.8223 197.697L97.3867 221.223L83.8502 251.13L39.2859 227.604Z" fill="url(#paint1_linear_16_3)"/>
<path d="M52.8063 197.921L66.3427 168.014L110.907 191.54L97.3706 221.447L52.8063 197.921Z" fill="#505F98"/>
<path d="M52.8063 197.921L66.3427 168.014L110.907 191.54L97.3706 221.447L52.8063 197.921Z" fill="url(#paint2_linear_16_3)"/>
<path d="M66.3647 168.269L79.9012 138.362L124.466 161.888L110.929 191.795L66.3647 168.269Z" fill="#505F98"/>
<path d="M66.3647 168.269L79.9012 138.362L124.466 161.888L110.929 191.795L66.3647 168.269Z" fill="url(#paint3_linear_16_3)"/>
<path d="M79.8938 138.566L93.4302 108.659L137.995 132.185L124.458 162.092L79.8938 138.566Z" fill="#505F98"/>
<path d="M93.4321 108.915L106.969 79.0076L151.533 102.533L137.996 132.44L93.4321 108.915Z" fill="#505F98"/>
<path d="M106.952 79.2314L120.489 49.3244L165.053 72.8501L151.517 102.757L106.952 79.2314Z" fill="#505F98"/>
<path d="M91.9091 112.636L105.445 82.7289L150.01 106.255L136.473 136.162L91.9091 112.636Z" fill="url(#paint4_linear_16_3)"/>
<path d="M105.456 82.9428L118.993 53.0358L163.557 76.5615L150.021 106.468L105.456 82.9428Z" fill="url(#paint5_linear_16_3)"/>
<rect x="393.685" y="594.304" width="94.0582" height="85.0487" fill="#505F98"/>
<rect x="393.685" y="594.304" width="94.0582" height="85.0487" fill="url(#paint6_linear_16_3)"/>
<rect x="194.052" y="239.588" width="497.165" height="368.199" rx="9.37" fill="#505F98"/>
<path opacity="0.65" d="M674.9 270.121V575.18C674.916 580.243 673.071 585.104 669.771 588.691C666.472 592.279 661.989 594.298 657.313 594.304H224.116C219.441 594.292 214.962 592.271 211.664 588.685C208.365 585.098 206.518 580.241 206.529 575.18V270.121C206.518 265.06 208.365 260.203 211.664 256.617C214.962 253.03 219.441 251.009 224.116 250.997H657.313C661.989 251.003 666.472 253.023 669.771 256.61C673.071 260.198 674.916 265.059 674.9 270.121V270.121Z" fill="url(#paint7_linear_16_3)"/>
<rect x="350.496" y="668.981" width="197.714" height="21.7808" fill="#505F98"/>
<rect x="393.685" y="656.535" width="94.0582" height="12.4462" fill="url(#paint8_linear_16_3)"/>
<path fill-rule="evenodd" clip-rule="evenodd" d="M542.451 61.4436V82.6783L530.262 82.7869C529.076 92.6674 525.6 102.069 520.154 110.129L530.565 121.714L516.293 136.493L506.044 125.061C499.725 129.712 492.593 132.935 485.082 134.537V148.317H465.352V134.863C456.927 133.547 448.896 130.163 441.883 124.974L433.312 134.124L419.343 118.91L427.854 109.933C422.496 101.871 419.079 92.5071 417.908 82.6783H404.243V61.4436H418.393C420.148 52.9929 423.597 45.056 428.501 38.1876L420.597 29.3851L434.868 14.6056L442.954 23.6689C449.64 18.8915 457.24 15.7937 465.19 14.6056V0H484.92V14.9316C492.946 16.6514 500.532 20.2178 507.156 25.386L517.263 14.6926L531.151 29.7764L521.044 40.6436C525.006 46.9501 527.819 54.0086 529.332 61.4436H542.451ZM440.65 74.8321C440.627 94.6021 455.515 110.648 473.903 110.672C482.738 110.701 491.22 106.946 497.475 100.238C503.73 93.5289 507.242 84.4183 507.237 74.919C507.259 55.149 492.371 39.1028 473.984 39.0788C455.596 39.0548 440.672 55.0621 440.65 74.8321Z" fill="#505F98"/>
<path fill-rule="evenodd" clip-rule="evenodd" d="M615.394 96.825L614.513 109.314L607.308 108.839C606.228 114.583 603.825 119.94 600.323 124.418L605.947 131.743L596.98 139.738L591.456 132.543C587.567 134.968 583.265 136.519 578.807 137.102L578.226 145.205L566.678 144.276L567.238 136.367C562.361 135.19 557.799 132.817 553.908 129.431L548.504 134.401L540.958 124.872L546.302 119.989C543.494 114.999 541.877 109.333 541.599 103.502L533.813 102.854L534.674 90.3859L542.94 91.0557C544.305 86.1745 546.634 81.6704 549.765 77.8533L545.502 72.3001L554.468 64.3051L558.812 70.0096C562.909 67.5152 567.469 66.0388 572.162 65.688L572.762 57.0449L584.311 57.974L583.69 66.7684C588.301 68.157 592.576 70.6123 596.22 73.9639L602.564 68.1513L610.09 77.6804L603.685 83.5794C605.763 87.4744 607.122 91.767 607.688 96.22L615.394 96.825ZM555.26 99.8212C554.441 111.43 562.49 121.56 573.243 122.452C578.416 122.893 583.539 121.088 587.476 117.438C591.414 113.787 593.84 108.593 594.218 103.005C595.026 91.3949 586.967 81.2743 576.213 80.3955C565.459 79.5167 556.08 88.2121 555.26 99.8212Z" fill="#505F98"/>
<path d="M763.2 214.661V716.503C763.167 726.903 755.449 735.324 745.92 735.36H743.929C734.416 735.312 726.728 726.884 726.728 716.503V214.661L744.068 164.912L763.2 214.661Z" fill="#505F98"/>
<rect x="743.045" y="214.696" width="20.1553" height="480.214" fill="url(#paint9_linear_16_3)"/>
<path opacity="0.65" d="M763.2 214.696L726.728 213.938L737.967 180.681L743.993 162.837L750.613 180.681L763.2 214.696V214.696Z" fill="url(#paint10_linear_16_3)"/>
<path d="M750.723 181.506H738.246L744.191 163.874L750.723 181.506V181.506Z" fill="url(#paint11_linear_16_3)"/>
<rect x="724.809" y="687.65" width="38.3911" height="17.6321" fill="url(#paint12_linear_16_3)"/>
<path d="M763.2 701.133V717.086C763.167 727.736 755.449 736.361 745.92 736.397H743.929C734.416 736.348 726.728 727.717 726.728 717.086V701.133H763.2Z" fill="url(#paint13_linear_16_3)"/>
<path d="M674.9 270.199V276.927H206.529V270.199C206.518 265.118 208.365 260.24 211.664 256.639C214.963 253.039 219.442 251.009 224.118 250.997H657.311C661.988 251.003 666.471 253.031 669.771 256.633C673.071 260.235 674.916 265.116 674.9 270.199V270.199Z" fill="url(#paint14_linear_16_3)"/>
<rect x="216.127" y="310.117" width="45.1095" height="235.44" fill="url(#paint15_linear_16_3)"/>
<rect x="329.38" y="326.712" width="212.111" height="216.771" fill="url(#paint16_linear_16_3)"/>
<rect x="378.329" y="428.355" width="6.71844" height="9.33462" fill="url(#paint17_linear_16_3)"/>
<rect x="378.329" y="384.794" width="6.71844" height="9.33462" fill="url(#paint18_linear_16_3)"/>
<rect x="287.15" y="428.355" width="6.71844" height="9.33462" fill="url(#paint19_linear_16_3)"/>
<rect x="287.15" y="384.794" width="6.71844" height="9.33462" fill="url(#paint20_linear_16_3)"/>
<rect x="378.329" y="338.121" width="6.71844" height="9.33462" fill="url(#paint21_linear_16_3)"/>
<rect x="288.11" y="338.121" width="6.71844" height="9.33462" fill="url(#paint22_linear_16_3)"/>
<rect x="334.179" y="338.121" width="6.71844" height="9.33462" fill="url(#paint23_linear_16_3)"/>
<rect x="334.179" y="428.355" width="6.71844" height="9.33462" fill="url(#paint24_linear_16_3)"/>
<path fill-rule="evenodd" clip-rule="evenodd" d="M299.627 426.281H374.49V350.567H299.627V426.281ZM366.949 418.276H307.168V358.507H366.949V418.276Z" fill="#505F98"/>
<path fill-rule="evenodd" clip-rule="evenodd" d="M299.627 426.281H374.49V350.567H299.627V426.281ZM366.949 418.276H307.168V358.507H366.949V418.276Z" fill="url(#paint25_linear_16_3)"/>
<rect x="572.204" y="289.373" width="95.9778" height="103.718" fill="url(#paint26_linear_16_3)"/>
<rect x="572.204" y="403.463" width="95.9778" height="103.718" fill="url(#paint27_linear_16_3)"/>
<rect opacity="0.65" x="216.127" y="309.079" width="45.1095" height="13.4833" fill="url(#paint28_linear_16_3)"/>
<path d="M21.3921 238.371L218.133 67.7203L264.279 129.77L67.5374 300.421L21.3921 238.371Z" fill="white"/>
<path d="M48.9413 243.172L72.9839 222.2L104.234 263.985L80.1916 284.957L48.9413 243.172Z" fill="#505F98"/>
<path d="M48.9413 243.172L72.9839 222.2L104.234 263.985L80.1916 284.957L48.9413 243.172Z" fill="url(#paint29_linear_16_3)"/>
<path d="M71.5936 222.671L95.6022 201.794L126.711 243.52L102.702 264.397L71.5936 222.671Z" fill="#505F98"/>
<path d="M71.5936 222.671L95.6022 201.794L126.711 243.52L102.702 264.397L71.5936 222.671Z" fill="url(#paint30_linear_16_3)"/>
<path d="M95.5177 202.002L119.526 181.125L150.635 222.851L126.626 243.728L95.5177 202.002Z" fill="#505F98"/>
<path d="M95.5177 202.002L119.526 181.125L150.635 222.851L126.626 243.728L95.5177 202.002Z" fill="url(#paint31_linear_16_3)"/>
<path d="M119.426 181.347L143.435 160.47L174.543 202.196L150.535 223.073L119.426 181.347Z" fill="#505F98"/>
<path d="M119.426 181.347L143.435 160.47L174.543 202.196L150.535 223.073L119.426 181.347Z" fill="url(#paint32_linear_16_3)"/>
<path d="M144.478 160.13L168.521 139.158L199.771 180.943L175.728 201.914L144.478 160.13Z" fill="#505F98"/>
<path d="M168.533 138.972L192.575 118L223.825 159.785L199.783 180.757L168.533 138.972Z" fill="#505F98"/>
<path d="M191.175 119.329L215.184 98.4518L246.292 140.178L222.284 161.055L191.175 119.329Z" fill="#505F98"/>
<path d="M219.966 164.101L199.729 181.506L169.098 139.793L189.334 122.387L219.966 164.101V164.101Z" fill="url(#paint33_linear_16_3)"/>
<path d="M188.339 122.022L212.347 101.145L243.456 142.871L219.447 163.748L188.339 122.022Z" fill="url(#paint34_linear_16_3)"/>
<path d="M139.344 248.041V375.459H119.189V248.041C119.189 243.333 121.892 239.142 125.921 237.606V224.886C125.921 222.695 127.528 220.919 129.511 220.919C131.493 220.919 133.101 222.695 133.101 224.886V237.822C136.86 239.521 139.323 243.554 139.344 248.041V248.041Z" fill="#505F98"/>
<path d="M139.344 248.041V375.459H119.189V248.041C119.189 243.333 121.892 239.142 125.921 237.606V224.886C125.921 222.695 127.528 220.919 129.511 220.919C131.493 220.919 133.101 222.695 133.101 224.886V237.822C136.86 239.521 139.323 243.554 139.344 248.041V248.041Z" fill="url(#paint35_linear_16_3)"/>
<rect x="106.712" y="328.786" width="47.9889" height="9.33462" rx="2.245" fill="#505F98"/>
<path d="M130.407 413.835V413.835C122.185 413.835 115.35 400.543 115.35 391.674V332.935H145.103V391.674C145.103 400.543 138.61 413.835 130.407 413.835Z" fill="#505F98"/>
<rect x="106.712" y="328.786" width="47.9889" height="9.33462" rx="2.245" fill="url(#paint36_linear_16_3)"/>
<path d="M130.407 413.835V413.835C122.185 413.835 115.35 400.731 115.35 391.988V338.121H145.103V391.988C145.103 400.731 138.61 413.835 130.407 413.835Z" fill="url(#paint37_linear_16_3)"/>
<path d="M322.318 476.065C321.673 472.368 321.265 467.136 322.505 466.776C325.122 465.979 322.318 476.065 322.318 476.065Z" fill="#28353D"/>
<path d="M459.72 678.841C459.254 691.904 449.891 739.911 449.587 752.997C449.587 757.351 450.661 764.035 449.364 768.237C446.689 777.142 437.204 775.923 435.968 770.675L435.501 768.063C431.104 742.633 438.177 713.785 435.501 680.583C433.9 660.313 426.442 621.232 421.558 620.971C418.984 620.971 360.231 754.912 355.124 763.164C352.611 767.323 345.538 766.669 342.113 770.022C338.688 773.375 370.648 668.477 384.044 613.046C387.169 601.605 389.206 589.853 390.124 577.971C390.489 571.113 388.442 568.805 394.299 566.78C398.353 565.387 403.967 565.778 408.304 565.452C413.026 565.06 456.944 564.973 456.944 568.326C456.518 586.527 460.855 648.665 459.72 678.841Z" fill="#606161"/>
<path d="M459.72 678.841C459.254 691.904 449.891 739.911 449.587 752.997C449.587 757.351 450.661 764.035 449.364 768.237C446.689 777.142 437.204 775.923 435.968 770.675L435.501 768.063C431.104 742.633 438.177 713.785 435.501 680.583C433.9 660.313 426.442 621.232 421.558 620.971C418.984 620.971 360.231 754.912 355.124 763.164C352.611 767.323 345.538 766.669 342.113 770.022C338.688 773.375 370.648 668.477 384.044 613.046C387.169 601.605 389.206 589.853 390.124 577.971C390.489 571.113 388.442 568.805 394.299 566.78C398.353 565.387 403.967 565.778 408.304 565.452C413.026 565.06 456.944 564.973 456.944 568.326C456.518 586.527 460.855 648.665 459.72 678.841Z" fill="url(#paint38_linear_16_3)"/>
<path d="M407.858 400.505C407.489 396.371 405.683 394.128 403.918 394.128C402.154 394.128 401.066 396.327 401.436 400.505C401.519 403.589 403.672 406.156 406.524 406.574C408.309 406.574 408.248 404.639 407.858 400.505Z" fill="#FFCD9C"/>
<path d="M438.927 400.516C439.168 396.375 440.929 394.128 442.75 394.128C444.572 394.128 445.753 396.331 445.473 400.516C445.447 403.642 443.294 406.25 440.469 406.574C438.667 406.574 438.647 404.658 438.927 400.516Z" fill="#FFCD9C"/>
<path d="M442.5 418.68C442.251 420.864 433.701 430.429 423.97 430.429C414.24 430.429 406.207 421.694 404.509 418.2C402.811 414.705 409.643 369.76 413.598 366.004C417.552 362.247 433.576 364.715 434.922 366.703C438.152 371.398 443.555 409.966 442.5 418.68Z" fill="#F4AD7D"/>
<path d="M438.477 384.77C437.154 385.456 431.96 371.146 430.871 368.743C429.781 366.34 429.956 363.873 431.279 363.186C432.602 362.5 434.547 363.916 435.637 366.297C436.726 368.679 439.781 384.105 438.477 384.77Z" fill="#FFCD9C"/>
<path d="M409.348 383.743C407.976 383.238 411.609 368.384 412.402 365.817C413.194 363.25 414.972 361.56 416.267 362.065C417.561 362.569 418.102 365.071 417.31 367.66C416.518 370.249 410.643 384.248 409.348 383.743Z" fill="#FFCD9C"/>
<path d="M414.794 416.946H435.667L438.795 438.335C427.424 444.955 420.794 444.225 411.921 436.874L414.794 416.946Z" fill="#F4AD7D"/>
<path d="M423.439 421.23C423.439 420.836 424.307 420.504 425.358 420.504C426.409 420.504 427.278 420.836 427.278 421.23C427.278 421.624 426.432 421.686 425.358 421.686C424.284 421.686 423.439 421.645 423.439 421.23Z" fill="#F4AD7D"/>
<path d="M443.612 411.561C444.402 406.465 445.691 369.971 442.531 365.14C439.37 360.31 420.448 357.185 417.579 357.939C411.154 359.623 412.277 364.586 412.277 364.586C410.367 364.617 408.497 365.174 406.85 366.204C404.646 367.799 400.009 390.799 403.71 408.193C405.373 416.015 411.923 422.817 423.235 423.149C437.166 423.548 442.655 417.876 443.612 411.561Z" fill="#606161"/>
<path d="M417.657 359.654C419.153 358.292 421.09 357.648 423.027 357.87C428.909 357.836 434.745 359.009 440.229 361.329C443.27 362.481 446.031 364.372 448.305 366.859C450.594 369.415 451.649 372.998 451.151 376.531C450.142 381.731 445.094 384.948 443.439 389.949C442.106 393.959 443.055 397.836 443.096 401.868C443.122 405.128 442.906 408.385 442.45 411.607C441.521 417.886 436.211 423.526 422.583 423.152C411.6 422.821 405.241 416.057 403.625 408.28C401.439 395.371 402.012 382.086 405.301 369.459C411.22 370.946 417.277 371.685 423.351 371.662C429.791 371.72 436.213 370.906 442.47 369.238C443.54 375.98 443.52 389.486 443.176 399.577" fill="#606161"/>
<path d="M383.965 434.53C380.671 434.828 377.498 436.014 374.733 437.98C369.997 442.016 369.638 449.545 369.718 456.098C369.555 465.176 370.137 474.253 371.456 483.219C372.875 491.443 375.452 499.34 377.571 507.39C380.909 520.489 382.662 534.005 382.786 547.595C382.786 555.059 382.666 563.261 386.962 569.098C391.658 575.433 399.97 576.67 407.444 577.126C418.054 577.798 428.705 577.885 439.315 577.408C446.429 577.061 454.002 576.301 459.637 571.571C464.133 567.796 474.663 440.063 466.491 436.83C458.318 433.597 449.526 432.773 440.854 431.992C421.411 430.213 403.108 428.802 383.965 434.53Z" fill="#505F98"/>
<path d="M445.175 699.36C444.132 713.844 441.647 766.476 441.647 766.476L435.312 766.237C430.961 740.95 437.958 712.264 435.312 679.248C433.728 659.091 426.35 620.229 421.519 619.97C422.962 606.98 431.082 608.928 431.082 608.928C436.987 618.464 442.079 628.558 446.297 639.087C451.129 652.769 446.237 684.812 445.175 699.36Z" fill="url(#paint39_linear_16_3)"/>
<path d="M325.902 767.537C324.913 768.328 324.162 769.411 323.742 770.651C323.517 771.67 323.609 772.74 324.002 773.7C325.121 776.148 327.241 777.904 329.742 778.455C332.213 778.964 334.744 779.057 337.242 778.733L345.241 778.157C347.277 778.105 349.296 777.753 351.241 777.112C353.188 776.46 354.796 774.978 355.681 773.018C356.152 771.574 356.336 770.042 356.221 768.518C356.221 761.46 353.901 755.724 346.661 757.451C339.078 758.972 331.954 762.433 325.902 767.537V767.537Z" fill="#505F98"/>
<path d="M458.776 770.689C459.685 771.411 460.374 772.397 460.759 773.525C460.964 774.443 460.883 775.407 460.529 776.273C459.51 778.49 457.563 780.077 455.27 780.56C453.009 781.033 450.691 781.122 448.404 780.824L441.141 780.296C439.293 780.254 437.46 779.943 435.694 779.373C433.913 778.781 432.446 777.435 431.645 775.658C431.215 774.352 431.045 772.968 431.144 771.591C431.144 765.216 433.231 759.962 439.889 761.588C446.791 762.968 453.272 766.091 458.776 770.689V770.689Z" fill="#505F98"/>
<path d="M467.588 436.653C467.588 436.653 498.966 456.529 508.39 481.654C517.814 506.78 477.526 567.337 477.526 567.337L468.905 557.81C468.905 557.81 489.934 512.116 486.683 500.688C483.432 489.259 470.695 478.608 470.695 478.608L467.588 436.653Z" fill="#505F98"/>
<path d="M378.329 475.919C378.329 475.919 334.7 497.058 316.971 486.684C299.242 476.311 317.495 424.206 317.495 424.206L329.368 428.565C329.368 428.565 319.447 455.129 330.796 459.074C342.146 463.018 376.156 437.107 376.156 437.107L378.329 475.919Z" fill="#505F98"/>
<path d="M460.468 566.275C459.213 567.157 458.196 568.341 457.509 569.72C457.097 570.89 456.948 572.138 457.074 573.373C456.998 576.37 458.259 579.243 460.509 581.201C462.09 582.117 463.862 582.646 465.682 582.746C466.797 582.944 467.939 582.944 469.055 582.746C470.192 582.528 471.143 581.742 471.579 580.659C471.728 579.973 471.79 579.272 471.765 578.571C471.91 575.127 474.31 572.308 476.296 569.49C476.776 568.946 477.086 568.27 477.186 567.549C477.174 566.75 476.898 565.978 476.4 565.357C475.055 563.394 471.724 559.783 469.055 560.096C466.385 560.409 462.537 564.563 460.468 566.275Z" fill="#F4AD7D"/>
<path d="M336.856 416.36C337.425 415.506 337.812 414.539 337.994 413.521C338.139 412.468 337.624 411.436 336.709 410.942C335.255 410.357 333.527 411.896 332.094 411.245C331.609 410.966 331.202 410.563 330.914 410.075C329.222 407.554 328.251 404.596 328.111 401.537C328.193 399.906 328.052 398.272 327.689 396.682C327.263 395.047 325.745 393.972 324.107 394.147C322.758 394.472 322 395.88 321.157 397.007C320.314 398.134 318.628 399.478 317.532 400.887C315.661 403.781 314.591 407.145 314.435 410.617C313.844 414.951 313.465 419.914 316.415 423.035C318.691 425.44 325.624 428.279 328.806 427C332.326 425.57 335.086 419.48 336.856 416.36Z" fill="#F4AD7D"/>
<defs>
<linearGradient id="paint0_linear_16_3" x1="144.858" y1="326.883" x2="215.079" y2="197.957" gradientUnits="userSpaceOnUse">
<stop stop-color="#010101" stop-opacity="0.01"/>
<stop offset="0.95" stop-color="#010101"/>
</linearGradient>
<linearGradient id="paint1_linear_16_3" x1="197.764" y1="322.941" x2="298.376" y2="140.989" gradientUnits="userSpaceOnUse">
<stop stop-color="#010101" stop-opacity="0.01"/>
<stop offset="0.95" stop-color="#010101"/>
</linearGradient>
<linearGradient id="paint2_linear_16_3" x1="312.84" y1="331.993" x2="462.732" y2="19.0125" gradientUnits="userSpaceOnUse">
<stop stop-color="#010101" stop-opacity="0.01"/>
<stop offset="0.95" stop-color="#010101"/>
</linearGradient>
<linearGradient id="paint3_linear_16_3" x1="435.447" y1="349.097" x2="658.737" y2="-101.698" gradientUnits="userSpaceOnUse">
<stop stop-color="#010101" stop-opacity="0.01"/>
<stop offset="0.36" stop-color="#010101" stop-opacity="0.36"/>
<stop offset="0.95" stop-color="#010101"/>
</linearGradient>
<linearGradient id="paint4_linear_16_3" x1="292.872" y1="240.174" x2="420.172" y2="-2.57417" gradientUnits="userSpaceOnUse">
<stop stop-color="white" stop-opacity="0.01"/>
<stop offset="0.07" stop-color="white" stop-opacity="0.22"/>
<stop offset="0.16" stop-color="white" stop-opacity="0.45"/>
<stop offset="0.25" stop-color="white" stop-opacity="0.65"/>
<stop offset="0.33" stop-color="white" stop-opacity="0.8"/>
<stop offset="0.4" stop-color="white" stop-opacity="0.91"/>
<stop offset="0.46" stop-color="white" stop-opacity="0.98"/>
<stop offset="0.51" stop-color="white"/>
</linearGradient>
<linearGradient id="paint5_linear_16_3" x1="217.988" y1="185.079" x2="287.832" y2="48.3631" gradientUnits="userSpaceOnUse">
<stop stop-color="white" stop-opacity="0.01"/>
<stop offset="0.07" stop-color="white" stop-opacity="0.22"/>
<stop offset="0.16" stop-color="white" stop-opacity="0.45"/>
<stop offset="0.25" stop-color="white" stop-opacity="0.65"/>
<stop offset="0.33" stop-color="white" stop-opacity="0.8"/>
<stop offset="0.4" stop-color="white" stop-opacity="0.91"/>
<stop offset="0.46" stop-color="white" stop-opacity="0.98"/>
<stop offset="0.51" stop-color="white"/>
</linearGradient>
<linearGradient id="paint6_linear_16_3" x1="510.827" y1="665.166" x2="522.501" y2="533.866" gradientUnits="userSpaceOnUse">
<stop stop-color="#010101" stop-opacity="0.01"/>
<stop offset="0.95" stop-color="#010101"/>
</linearGradient>
<linearGradient id="paint7_linear_16_3" x1="125.539" y1="185.154" x2="122.493" y2="651.419" gradientUnits="userSpaceOnUse">
<stop stop-color="white" stop-opacity="0.01"/>
<stop offset="0.07" stop-color="white" stop-opacity="0.22"/>
<stop offset="0.16" stop-color="white" stop-opacity="0.45"/>
<stop offset="0.25" stop-color="white" stop-opacity="0.65"/>
<stop offset="0.33" stop-color="white" stop-opacity="0.8"/>
<stop offset="0.4" stop-color="white" stop-opacity="0.91"/>
<stop offset="0.46" stop-color="white" stop-opacity="0.98"/>
<stop offset="0.51" stop-color="white"/>
</linearGradient>
<linearGradient id="paint8_linear_16_3" x1="-117.744" y1="638.978" x2="-117.632" y2="786.5" gradientUnits="userSpaceOnUse">
<stop stop-color="#010101" stop-opacity="0.01"/>
<stop offset="0.95" stop-color="#010101"/>
</linearGradient>
<linearGradient id="paint9_linear_16_3" x1="722.911" y1="3950.71" x2="1016.59" y2="3950.76" gradientUnits="userSpaceOnUse">
<stop stop-color="#010101" stop-opacity="0.01"/>
<stop offset="0.95" stop-color="#010101"/>
</linearGradient>
<linearGradient id="paint10_linear_16_3" x1="731.922" y1="208.835" x2="761.029" y2="210.006" gradientUnits="userSpaceOnUse">
<stop stop-color="white" stop-opacity="0.01"/>
<stop offset="0.07" stop-color="white" stop-opacity="0.22"/>
<stop offset="0.16" stop-color="white" stop-opacity="0.45"/>
<stop offset="0.25" stop-color="white" stop-opacity="0.65"/>
<stop offset="0.33" stop-color="white" stop-opacity="0.8"/>
<stop offset="0.4" stop-color="white" stop-opacity="0.91"/>
<stop offset="0.46" stop-color="white" stop-opacity="0.98"/>
<stop offset="0.51" stop-color="white"/>
</linearGradient>
<linearGradient id="paint11_linear_16_3" x1="740.038" y1="179.63" x2="749.969" y2="180.028" gradientUnits="userSpaceOnUse">
<stop stop-color="#010101" stop-opacity="0.01"/>
<stop offset="0.95" stop-color="#010101"/>
</linearGradient>
<linearGradient id="paint12_linear_16_3" x1="666.537" y1="667.748" x2="666.882" y2="738.282" gradientUnits="userSpaceOnUse">
<stop stop-color="#010101" stop-opacity="0.01"/>
<stop offset="0.95" stop-color="#010101"/>
</linearGradient>
<linearGradient id="paint13_linear_16_3" x1="732.523" y1="657.863" x2="671.191" y2="728.132" gradientUnits="userSpaceOnUse">
<stop stop-color="#010101" stop-opacity="0.01"/>
<stop offset="0.95" stop-color="#010101"/>
</linearGradient>
<linearGradient id="paint14_linear_16_3" x1="987.55" y1="375.424" x2="1025.85" y2="-46.3233" gradientUnits="userSpaceOnUse">
<stop stop-color="white" stop-opacity="0.01"/>
<stop offset="0.07" stop-color="white" stop-opacity="0.22"/>
<stop offset="0.16" stop-color="white" stop-opacity="0.45"/>
<stop offset="0.25" stop-color="white" stop-opacity="0.65"/>
<stop offset="0.33" stop-color="white" stop-opacity="0.8"/>
<stop offset="0.4" stop-color="white" stop-opacity="0.91"/>
<stop offset="0.46" stop-color="white" stop-opacity="0.98"/>
<stop offset="0.51" stop-color="white"/>
</linearGradient>
<linearGradient id="paint15_linear_16_3" x1="194.479" y1="261.234" x2="346.104" y2="635.393" gradientUnits="userSpaceOnUse">
<stop stop-color="white" stop-opacity="0.01"/>
<stop offset="0.07" stop-color="white" stop-opacity="0.22"/>
<stop offset="0.16" stop-color="white" stop-opacity="0.45"/>
<stop offset="0.25" stop-color="white" stop-opacity="0.65"/>
<stop offset="0.33" stop-color="white" stop-opacity="0.8"/>
<stop offset="0.4" stop-color="white" stop-opacity="0.91"/>
<stop offset="0.46" stop-color="white" stop-opacity="0.98"/>
<stop offset="0.51" stop-color="white"/>
</linearGradient>
<linearGradient id="paint16_linear_16_3" x1="293.776" y1="285.214" x2="290.046" y2="578.426" gradientUnits="userSpaceOnUse">
<stop stop-color="white" stop-opacity="0.01"/>
<stop offset="0.07" stop-color="white" stop-opacity="0.22"/>
<stop offset="0.16" stop-color="white" stop-opacity="0.45"/>
<stop offset="0.25" stop-color="white" stop-opacity="0.65"/>
<stop offset="0.33" stop-color="white" stop-opacity="0.8"/>
<stop offset="0.4" stop-color="white" stop-opacity="0.91"/>
<stop offset="0.46" stop-color="white" stop-opacity="0.98"/>
<stop offset="0.51" stop-color="white"/>
</linearGradient>
<linearGradient id="paint17_linear_16_3" x1="596.697" y1="484.056" x2="618.213" y2="-115.238" gradientUnits="userSpaceOnUse">
<stop stop-color="#010101" stop-opacity="0.01"/>
<stop offset="0.95" stop-color="#010101"/>
</linearGradient>
<linearGradient id="paint18_linear_16_3" x1="595.88" y1="484.409" x2="617.396" y2="-114.885" gradientUnits="userSpaceOnUse">
<stop stop-color="#010101" stop-opacity="0.01"/>
<stop offset="0.95" stop-color="#010101"/>
</linearGradient>
<linearGradient id="paint19_linear_16_3" x1="505.551" y1="481.618" x2="527.1" y2="-117.675" gradientUnits="userSpaceOnUse">
<stop stop-color="#010101" stop-opacity="0.01"/>
<stop offset="0.95" stop-color="#010101"/>
</linearGradient>
<linearGradient id="paint20_linear_16_3" x1="504.734" y1="481.971" x2="526.283" y2="-117.322" gradientUnits="userSpaceOnUse">
<stop stop-color="#010101" stop-opacity="0.01"/>
<stop offset="0.95" stop-color="#010101"/>
</linearGradient>
<linearGradient id="paint21_linear_16_3" x1="594.98" y1="485.965" x2="616.528" y2="-113.328" gradientUnits="userSpaceOnUse">
<stop stop-color="#010101" stop-opacity="0.01"/>
<stop offset="0.95" stop-color="#010101"/>
</linearGradient>
<linearGradient id="paint22_linear_16_3" x1="504.794" y1="483.571" x2="526.31" y2="-115.724" gradientUnits="userSpaceOnUse">
<stop stop-color="#010101" stop-opacity="0.01"/>
<stop offset="0.95" stop-color="#010101"/>
</linearGradient>
<linearGradient id="paint23_linear_16_3" x1="550.822" y1="484.774" x2="572.371" y2="-114.497" gradientUnits="userSpaceOnUse">
<stop stop-color="#010101" stop-opacity="0.01"/>
<stop offset="0.95" stop-color="#010101"/>
</linearGradient>
<linearGradient id="paint24_linear_16_3" x1="552.564" y1="482.126" x2="574.112" y2="-117.167" gradientUnits="userSpaceOnUse">
<stop stop-color="#010101" stop-opacity="0.01"/>
<stop offset="0.95" stop-color="#010101"/>
</linearGradient>
<linearGradient id="paint25_linear_16_3" x1="221.595" y1="497.223" x2="460.436" y2="703.31" gradientUnits="userSpaceOnUse">
<stop stop-color="white" stop-opacity="0.01"/>
<stop offset="0.07" stop-color="white" stop-opacity="0.22"/>
<stop offset="0.16" stop-color="white" stop-opacity="0.45"/>
<stop offset="0.25" stop-color="white" stop-opacity="0.65"/>
<stop offset="0.33" stop-color="white" stop-opacity="0.8"/>
<stop offset="0.4" stop-color="white" stop-opacity="0.91"/>
<stop offset="0.46" stop-color="white" stop-opacity="0.98"/>
<stop offset="0.51" stop-color="white"/>
</linearGradient>
<linearGradient id="paint26_linear_16_3" x1="556.198" y1="269.525" x2="554.195" y2="409.708" gradientUnits="userSpaceOnUse">
<stop stop-color="white" stop-opacity="0.01"/>
<stop offset="0.07" stop-color="white" stop-opacity="0.22"/>
<stop offset="0.16" stop-color="white" stop-opacity="0.45"/>
<stop offset="0.25" stop-color="white" stop-opacity="0.65"/>
<stop offset="0.33" stop-color="white" stop-opacity="0.8"/>
<stop offset="0.4" stop-color="white" stop-opacity="0.91"/>
<stop offset="0.46" stop-color="white" stop-opacity="0.98"/>
<stop offset="0.51" stop-color="white"/>
</linearGradient>
<linearGradient id="paint27_linear_16_3" x1="556.198" y1="383.615" x2="554.195" y2="523.798" gradientUnits="userSpaceOnUse">
<stop stop-color="white" stop-opacity="0.01"/>
<stop offset="0.07" stop-color="white" stop-opacity="0.22"/>
<stop offset="0.16" stop-color="white" stop-opacity="0.45"/>
<stop offset="0.25" stop-color="white" stop-opacity="0.65"/>
<stop offset="0.33" stop-color="white" stop-opacity="0.8"/>
<stop offset="0.4" stop-color="white" stop-opacity="0.91"/>
<stop offset="0.46" stop-color="white" stop-opacity="0.98"/>
<stop offset="0.51" stop-color="white"/>
</linearGradient>
<linearGradient id="paint28_linear_16_3" x1="207.234" y1="306.26" x2="207.214" y2="325.136" gradientUnits="userSpaceOnUse">
<stop stop-color="white" stop-opacity="0.01"/>
<stop offset="0.07" stop-color="white" stop-opacity="0.22"/>
<stop offset="0.16" stop-color="white" stop-opacity="0.45"/>
<stop offset="0.25" stop-color="white" stop-opacity="0.65"/>
<stop offset="0.33" stop-color="white" stop-opacity="0.8"/>
<stop offset="0.4" stop-color="white" stop-opacity="0.91"/>
<stop offset="0.46" stop-color="white" stop-opacity="0.98"/>
<stop offset="0.51" stop-color="white"/>
</linearGradient>
<linearGradient id="paint29_linear_16_3" x1="129.833" y1="360.992" x2="245.022" y2="277.024" gradientUnits="userSpaceOnUse">
<stop stop-color="#010101" stop-opacity="0.01"/>
<stop offset="0.95" stop-color="#010101"/>
</linearGradient>
<linearGradient id="paint30_linear_16_3" x1="177.634" y1="381.67" x2="341.221" y2="264.308" gradientUnits="userSpaceOnUse">
<stop stop-color="#010101" stop-opacity="0.01"/>
<stop offset="0.95" stop-color="#010101"/>
</linearGradient>
<linearGradient id="paint31_linear_16_3" x1="278.287" y1="442.618" x2="540.321" y2="231.94" gradientUnits="userSpaceOnUse">
<stop stop-color="#010101" stop-opacity="0.01"/>
<stop offset="0.95" stop-color="#010101"/>
</linearGradient>
<linearGradient id="paint32_linear_16_3" x1="382.6" y1="514.301" x2="766.151" y2="213.686" gradientUnits="userSpaceOnUse">
<stop stop-color="#010101" stop-opacity="0.01"/>
<stop offset="0.36" stop-color="#010101" stop-opacity="0.36"/>
<stop offset="0.95" stop-color="#010101"/>
</linearGradient>
<linearGradient id="paint33_linear_16_3" x1="237.063" y1="268.371" x2="421.625" y2="145.757" gradientUnits="userSpaceOnUse">
<stop stop-color="white" stop-opacity="0.01"/>
<stop offset="0.07" stop-color="white" stop-opacity="0.22"/>
<stop offset="0.16" stop-color="white" stop-opacity="0.45"/>
<stop offset="0.25" stop-color="white" stop-opacity="0.65"/>
<stop offset="0.33" stop-color="white" stop-opacity="0.8"/>
<stop offset="0.4" stop-color="white" stop-opacity="0.91"/>
<stop offset="0.46" stop-color="white" stop-opacity="0.98"/>
<stop offset="0.51" stop-color="white"/>
</linearGradient>
<linearGradient id="paint34_linear_16_3" x1="250.12" y1="266.054" x2="368.191" y2="175.716" gradientUnits="userSpaceOnUse">
<stop stop-color="white" stop-opacity="0.01"/>
<stop offset="0.07" stop-color="white" stop-opacity="0.22"/>
<stop offset="0.16" stop-color="white" stop-opacity="0.45"/>
<stop offset="0.25" stop-color="white" stop-opacity="0.65"/>
<stop offset="0.33" stop-color="white" stop-opacity="0.8"/>
<stop offset="0.4" stop-color="white" stop-opacity="0.91"/>
<stop offset="0.46" stop-color="white" stop-opacity="0.98"/>
<stop offset="0.51" stop-color="white"/>
</linearGradient>
<linearGradient id="paint35_linear_16_3" x1="121.202" y1="438.462" x2="157.826" y2="438.481" gradientUnits="userSpaceOnUse">
<stop stop-color="white" stop-opacity="0.01"/>
<stop offset="0.07" stop-color="white" stop-opacity="0.22"/>
<stop offset="0.16" stop-color="white" stop-opacity="0.45"/>
<stop offset="0.25" stop-color="white" stop-opacity="0.65"/>
<stop offset="0.33" stop-color="white" stop-opacity="0.8"/>
<stop offset="0.4" stop-color="white" stop-opacity="0.91"/>
<stop offset="0.46" stop-color="white" stop-opacity="0.98"/>
<stop offset="0.51" stop-color="white"/>
</linearGradient>
<linearGradient id="paint36_linear_16_3" x1="50.9068" y1="337.29" x2="63.7938" y2="376.906" gradientUnits="userSpaceOnUse">
<stop stop-color="#010101" stop-opacity="0.01"/>
<stop offset="0.95" stop-color="#010101"/>
</linearGradient>
<linearGradient id="paint37_linear_16_3" x1="74.691" y1="491.553" x2="171.473" y2="493.365" gradientUnits="userSpaceOnUse">
<stop stop-color="#010101" stop-opacity="0.01"/>
<stop offset="0.95" stop-color="#010101"/>
</linearGradient>
<linearGradient id="paint38_linear_16_3" x1="460.994" y1="654.991" x2="357.658" y2="491.13" gradientUnits="userSpaceOnUse">
<stop stop-color="#010101" stop-opacity="0.01"/>
<stop offset="0.95" stop-color="#010101"/>
</linearGradient>
<linearGradient id="paint39_linear_16_3" x1="461.975" y1="176.208" x2="296.138" y2="180.528" gradientUnits="userSpaceOnUse">
<stop stop-color="#010101" stop-opacity="0.01"/>
<stop offset="0.95" stop-color="#010101"/>
</linearGradient>
</defs>
</svg>
